<?xml version="1.0" standalone="no"?>
<!DOCTYPE svg PUBLIC "-//W3C//DTD SVG 20010904//EN"
 "http://www.w3.org/TR/2001/REC-SVG-20010904/DTD/svg10.dtd">
<svg version="1.0" xmlns="http://www.w3.org/2000/svg"
 width="800.000000pt" height="800.000000pt" viewBox="0 0 800.000000 800.000000"
 preserveAspectRatio="xMidYMid meet">
<metadata>
Created by potrace 1.11, written by Peter Selinger 2001-2013
</metadata>
<g transform="translate(0.000000,800.000000) scale(0.100000,-0.100000)"
fill="#000000" stroke="none">
<path d="M0 4000 l0 -4000 4000 0 4000 0 0 4000 0 4000 -4000 0 -4000 0 0
-4000z m3175 1510 l680 -680 145 0 145 0 680 680 680 680 617 0 618 0 0 -27
c0 -24 -180 -208 -1142 -1170 l-1143 -1143 -455 0 -455 0 -1142 1142 c-964
964 -1143 1147 -1143 1170 l0 28 618 0 617 0 680 -680z m-1333 -207 l538 -538
0 -1552 0 -1553 -565 0 -565 0 0 2090 0 2090 27 0 c23 0 116 -88 565 -537z
m4888 -1553 l0 -2090 -565 0 -565 0 0 1552 0 1553 537 537 c450 450 542 538
565 538 l28 0 0 -2090z"/>
</g>
</svg>
